<svg xmlns="http://www.w3.org/2000/svg" width="89.455" height="81.306" viewBox="0 0 89.455 81.306">
  <g id="iconfinder_book_214658" transform="translate(-1.728 -7.4)">
    <path id="Path_3" data-name="Path 3" d="M87.392,7.4c-1.11,0-25.871.154-40.937,12.355C31.39,7.554,6.628,7.4,5.518,7.4H1.728V83.21h3.79c19.777,0,32.165,3.715,36.971,5.5h7.9c4.739-1.777,17.037-5.5,37-5.5h3.79V7.4ZM42.665,80.729c-6.076-1.982-17.187-4.684-33.356-5.056V15.16c7.356.539,23.679,2.7,33.356,11.31ZM83.6,75.673c-16.169.372-27.28,3.074-33.356,5.056V26.47c9.677-8.616,26-10.771,33.356-11.31Z" transform="translate(0 0)" fill="#45c3a7"/>
  </g>
</svg>
