<svg xmlns="http://www.w3.org/2000/svg" width="56" height="56" viewBox="0 0 56 56">
  <g id="Group_3" data-name="Group 3" transform="translate(-1018 -949)">
    <circle id="Ellipse_6" data-name="Ellipse 6" cx="28" cy="28" r="28" transform="translate(1018 949)" fill="#19171f"/>
    <g id="iconfinder_interface-12_4634389" transform="translate(1030 961)">
      <g id="Group_2" data-name="Group 2">
        <g id="Group_1" data-name="Group 1">
          <path id="Path_1" data-name="Path 1" d="M27,31a1,1,0,0,1-.454-.109L16,25.522,5.454,30.891A1,1,0,0,1,4,30V5.2A4.2,4.2,0,0,1,8.2,1H23.8A4.2,4.2,0,0,1,28,5.2V30a1,1,0,0,1-1,1ZM16,23.4a1,1,0,0,1,.454.109L26,28.369V5.2A2.2,2.2,0,0,0,23.8,3H8.2A2.2,2.2,0,0,0,6,5.2V28.369l9.546-4.86A1,1,0,0,1,16,23.4Z" fill="#868589"/>
        </g>
      </g>
    </g>
  </g>
</svg>
