<svg xmlns="http://www.w3.org/2000/svg" width="35" height="43.75" viewBox="0 0 35 43.75">
  <g id="iconfinder_interface-12_4634389" transform="translate(-4 -1)">
    <g id="Group_2" data-name="Group 2" transform="translate(4 1)">
      <g id="Group_1" data-name="Group 1">
        <path id="Path_3" data-name="Path 3" d="M37.542,44.75a1.455,1.455,0,0,1-.662-.159L21.5,36.761,6.12,44.591A1.458,1.458,0,0,1,4,43.292V7.121A6.128,6.128,0,0,1,10.121,1H32.879A6.128,6.128,0,0,1,39,7.121V43.292a1.459,1.459,0,0,1-1.458,1.458ZM21.5,33.667a1.453,1.453,0,0,1,.662.159l13.922,7.087V7.121a3.208,3.208,0,0,0-3.2-3.2H10.121a3.208,3.208,0,0,0-3.2,3.2V40.913l13.922-7.087A1.452,1.452,0,0,1,21.5,33.667Z" transform="translate(-4 -1)" fill="#7a7a7b"/>
      </g>
    </g>
  </g>
</svg>
