<svg xmlns="http://www.w3.org/2000/svg" width="53.242" height="53.002" viewBox="0 0 53.242 53.002">
  <g id="Group_3" data-name="Group 3" transform="translate(535.563 -1149.262)">
    <circle id="Ellipse_7" data-name="Ellipse 7" cx="10" cy="10" r="10" transform="translate(-518.692 1150.262)" fill="none" stroke="#88878a" stroke-miterlimit="10" stroke-width="2"/>
    <path id="Path_21" data-name="Path 21" d="M667.429,1279.5v5.141s-12.5-2.333-21.416,7.167c0,0-9.585-9-21.917-6.833v-6.834" transform="translate(-1154.704 -90.958)" fill="none" stroke="#88878a" stroke-miterlimit="10" stroke-width="2"/>
    <path id="Path_22" data-name="Path 22" d="M624.1,1268.64v-6.333s13.832.333,21.666,7c0,0,10.834-7.333,21.667-6v4.834" transform="translate(-1154.704 -90.958)" fill="none" stroke="#88878a" stroke-miterlimit="10" stroke-width="2"/>
    <path id="Path_23" data-name="Path 23" d="M628.049,1275.54a3.953,3.953,0,0,1-3.953,3.954h0a3.955,3.955,0,0,1-3.955-3.954v-3.45a3.955,3.955,0,0,1,3.955-3.954h0a3.953,3.953,0,0,1,3.953,3.954Z" transform="translate(-1154.704 -90.958)" fill="none" stroke="#88878a" stroke-miterlimit="10" stroke-width="2"/>
    <path id="Path_24" data-name="Path 24" d="M671.383,1275.54a3.954,3.954,0,0,1-3.954,3.954h0a3.954,3.954,0,0,1-3.954-3.954v-3.45a3.954,3.954,0,0,1,3.954-3.954h0a3.954,3.954,0,0,1,3.954,3.954Z" transform="translate(-1154.704 -90.958)" fill="none" stroke="#88878a" stroke-miterlimit="10" stroke-width="2"/>
    <line id="Line_17" data-name="Line 17" y2="21.24" transform="translate(-508.691 1178.542)" fill="none" stroke="#88878a" stroke-miterlimit="10" stroke-width="2"/>
    <path id="Path_25" data-name="Path 25" d="M633.236,1263.58a28.379,28.379,0,0,1,24.359,0" transform="translate(-1154.704 -90.958)" fill="none" stroke="#88878a" stroke-miterlimit="10" stroke-width="2"/>
  </g>
</svg>
