<svg xmlns="http://www.w3.org/2000/svg" width="37.986" height="37.9" viewBox="0 0 37.986 37.9">
  <g id="iconfinder_calendar_1814093" transform="translate(-10 -9.9)">
    <g id="Icon-Calendar" transform="translate(10 9.9)">
      <path id="Fill-133" d="M14.033-429.778H-16.219A3.815,3.815,0,0,1-20-433.56v-27.759c0-2.063,1.375-3.781,3.18-3.781h1.891v2.492H-16.82c-.258,0-.6.516-.6,1.289v27.759a1.322,1.322,0,0,0,1.289,1.289H14.119a1.322,1.322,0,0,0,1.289-1.289v-27.759c0-.773-.43-1.289-.6-1.289H12.915V-465.1h1.891c1.719,0,3.18,1.719,3.18,3.781v27.759a4.09,4.09,0,0,1-3.953,3.781" transform="translate(20 467.678)" fill="#514d57"/>
      <path id="Fill-134" d="M-9.911-460.451A1.322,1.322,0,0,1-11.2-461.74v-5.071A1.322,1.322,0,0,1-9.911-468.1a1.322,1.322,0,0,1,1.289,1.289v5.071a1.386,1.386,0,0,1-1.289,1.289" transform="translate(18.763 468.1)" fill="#514d57"/>
      <path id="Fill-135" d="M13.489-460.451A1.322,1.322,0,0,1,12.2-461.74v-5.071a1.322,1.322,0,0,1,1.289-1.289,1.322,1.322,0,0,1,1.289,1.289v5.071a1.322,1.322,0,0,1-1.289,1.289" transform="translate(15.473 468.1)" fill="#514d57"/>
      <path id="Fill-136" d="M-5.3-465.1H7.247v2.578H-5.3Z" transform="translate(17.933 467.678)" fill="#514d57"/>
      <path id="Fill-137" d="M-17.1-456.3H15.73v2.578H-17.1Z" transform="translate(19.592 466.441)" fill="#514d57"/>
      <path id="Fill-138" d="M15.2-450.4h2.492v2.492H15.2Z" transform="translate(15.051 465.612)" fill="#514d57"/>
      <path id="Fill-139" d="M9.3-450.4h2.578v2.492H9.3Z" transform="translate(15.881 465.612)" fill="#514d57"/>
      <path id="Fill-140" d="M3.5-450.4H5.992v2.492H3.5Z" transform="translate(16.696 465.612)" fill="#514d57"/>
      <path id="Fill-141" d="M-2.4-450.4H.092v2.492H-2.4Z" transform="translate(17.526 465.612)" fill="#514d57"/>
      <path id="Fill-142" d="M-8.3-450.4h2.578v2.492H-8.3Z" transform="translate(18.355 465.612)" fill="#514d57"/>
      <path id="Fill-143" d="M15.2-444.5h2.492v2.492H15.2Z" transform="translate(15.051 464.782)" fill="#514d57"/>
      <path id="Fill-144" d="M9.3-444.5h2.578v2.492H9.3Z" transform="translate(15.881 464.782)" fill="#514d57"/>
      <path id="Fill-145" d="M3.5-444.5H5.992v2.492H3.5Z" transform="translate(16.696 464.782)" fill="#514d57"/>
      <path id="Fill-146" d="M-2.4-444.5H.092v2.492H-2.4Z" transform="translate(17.526 464.782)" fill="#514d57"/>
      <path id="Fill-147" d="M-8.3-444.5h2.578v2.492H-8.3Z" transform="translate(18.355 464.782)" fill="#514d57"/>
      <path id="Fill-148" d="M-14.1-444.5h2.492v2.492H-14.1Z" transform="translate(19.171 464.782)" fill="#514d57"/>
      <path id="Fill-149" d="M15.2-438.7h2.492v2.578H15.2Z" transform="translate(15.051 463.967)" fill="#514d57"/>
      <path id="Fill-150" d="M9.3-438.7h2.578v2.578H9.3Z" transform="translate(15.881 463.967)" fill="#514d57"/>
      <path id="Fill-151" d="M3.5-438.7H5.992v2.578H3.5Z" transform="translate(16.696 463.967)" fill="#514d57"/>
      <path id="Fill-152" d="M-2.4-438.7H.092v2.578H-2.4Z" transform="translate(17.526 463.967)" fill="#514d57"/>
      <path id="Fill-153" d="M-8.3-438.7h2.578v2.578H-8.3Z" transform="translate(18.355 463.967)" fill="#514d57"/>
      <path id="Fill-154" d="M-14.1-438.7h2.492v2.578H-14.1Z" transform="translate(19.171 463.967)" fill="#514d57"/>
      <path id="Fill-155" d="M9.3-432.8h2.578v2.492H9.3Z" transform="translate(15.881 463.137)" fill="#514d57"/>
      <path id="Fill-156" d="M3.5-432.8H5.992v2.492H3.5Z" transform="translate(16.696 463.137)" fill="#514d57"/>
      <path id="Fill-157" d="M-2.4-432.8H.092v2.492H-2.4Z" transform="translate(17.526 463.137)" fill="#514d57"/>
      <path id="Fill-158" d="M-8.3-432.8h2.578v2.492H-8.3Z" transform="translate(18.355 463.137)" fill="#514d57"/>
      <path id="Fill-159" d="M-14.1-432.8h2.492v2.492H-14.1Z" transform="translate(19.171 463.137)" fill="#514d57"/>
    </g>
  </g>
</svg>
