<svg xmlns="http://www.w3.org/2000/svg" width="56.979" height="51.122" viewBox="0 0 56.979 51.122">
  <g id="_1-danger" data-name="1-danger" transform="translate(0 -26.315)">
    <g id="Group_2" data-name="Group 2" transform="translate(0 26.315)">
      <g id="Group_1" data-name="Group 1" transform="translate(0 0)">
        <path id="Path_1" data-name="Path 1" d="M56.07,67.387,34.291,29.665a6.7,6.7,0,0,0-11.6,0L.908,67.387a6.7,6.7,0,0,0,5.8,10.05H50.268a6.7,6.7,0,0,0,5.8-10.05Zm-2.891,5.031A3.328,3.328,0,0,1,50.268,74.1H6.71A3.362,3.362,0,0,1,3.8,69.056L25.578,31.334a3.362,3.362,0,0,1,5.823,0L53.179,69.056A3.328,3.328,0,0,1,53.179,72.418Z" transform="translate(0 -26.315)" fill="#b53a15"/>
      </g>
    </g>
    <g id="Group_4" data-name="Group 4" transform="translate(26.82 42.974)">
      <g id="Group_3" data-name="Group 3" transform="translate(0 0)">
        <rect id="Rectangle_1" data-name="Rectangle 1" width="3.338" height="16.691" fill="#b53a15"/>
      </g>
    </g>
    <g id="Group_6" data-name="Group 6" transform="translate(26.264 63.003)">
      <g id="Group_5" data-name="Group 5" transform="translate(0 0)">
        <path id="Path_2" data-name="Path 2" d="M238.228,355.99a2.225,2.225,0,1,0,2.225,2.225A2.228,2.228,0,0,0,238.228,355.99Z" transform="translate(-236.002 -355.99)" fill="#b53a15"/>
      </g>
    </g>
  </g>
</svg>
