<svg xmlns="http://www.w3.org/2000/svg" width="97.103" height="97.132" viewBox="0 0 97.103 97.132">
  <g id="iconfinder_Edit-01_1976055" transform="translate(-2.569 -2.566)">
    <path id="Path_1" data-name="Path 1" d="M90.282,82.684a8.348,8.348,0,0,1-8.221,8.36H16.273a8.348,8.348,0,0,1-8.221-8.36V16.9A8.115,8.115,0,0,1,16.273,8.81H54.647V3.332H16.273A13.6,13.6,0,0,0,2.569,16.9V82.684a13.834,13.834,0,0,0,13.7,13.838H82.055a13.837,13.837,0,0,0,13.7-13.838V44.444H90.277v38.24Z" transform="translate(0 3.176)" fill="#45c3a7"/>
    <path id="Path_2" data-name="Path 2" d="M66.7,5.674a11.224,11.224,0,0,0-15.506,0L14.417,42.447a2.737,2.737,0,0,0-.721,1.272l-3.871,15.5a2.742,2.742,0,0,0,2.656,3.408,2.667,2.667,0,0,0,.664-.082l15.506-3.876a2.712,2.712,0,0,0,1.272-.721L66.7,21.175a10.956,10.956,0,0,0,0-15.5ZM26.587,53.536,16.25,56.12l2.584-10.337,30.42-30.42,7.753,7.753ZM62.819,17.3l-1.936,1.936-7.753-7.753,1.936-1.936a5.617,5.617,0,0,1,7.753,0,5.481,5.481,0,0,1,0,7.753Z" transform="translate(29.763 0)" fill="#45c3a7"/>
  </g>
</svg>
