<svg xmlns="http://www.w3.org/2000/svg" width="46.689" height="46.687" viewBox="0 0 46.689 46.687">
  <g id="_3-edit" data-name="3-edit" transform="translate(0 -0.501)">
    <path id="Path_3" data-name="Path 3" d="M36.962,101.379a1.945,1.945,0,0,0-1.945,1.945v15.563a1.947,1.947,0,0,1-1.945,1.945H5.836a1.947,1.947,0,0,1-1.945-1.945V91.652a1.947,1.947,0,0,1,1.945-1.945H21.4a1.945,1.945,0,0,0,0-3.891H5.836A5.843,5.843,0,0,0,0,91.652v27.235a5.843,5.843,0,0,0,5.836,5.836H33.071a5.843,5.843,0,0,0,5.836-5.836V103.324a1.944,1.944,0,0,0-1.946-1.945Zm0,0" transform="translate(0 -77.535)" fill="#fff"/>
    <path id="Path_4" data-name="Path 4" d="M183.469,83.654a.984.984,0,0,0-.266.5l-1.375,6.879a.972.972,0,0,0,.955,1.163.925.925,0,0,0,.191-.019L189.85,90.8a.968.968,0,0,0,.5-.267L205.74,75.139l-6.877-6.877Zm0,0" transform="translate(-165.23 -61.582)" fill="#fff"/>
    <path id="Path_5" data-name="Path 5" d="M401.015,1.924a4.867,4.867,0,0,0-6.877,0l-2.692,2.692,6.877,6.877L401.015,8.8a4.863,4.863,0,0,0,0-6.877Zm0,0" transform="translate(-355.75)" fill="#fff"/>
  </g>
</svg>
