<svg xmlns="http://www.w3.org/2000/svg" width="55.024" height="45.569" viewBox="0 0 55.024 45.569">
  <g id="Group_2" data-name="Group 2" transform="translate(485.367 -904.473)">
    <circle id="Ellipse_1" data-name="Ellipse 1" cx="8.609" cy="8.609" r="8.609" transform="translate(-476.88 905.473)" fill="none" stroke="#fff" stroke-miterlimit="10" stroke-width="2"/>
    <circle id="Ellipse_2" data-name="Ellipse 2" cx="8.609" cy="8.609" r="8.609" transform="translate(-454.753 905.473)" fill="none" stroke="#fff" stroke-miterlimit="10" stroke-width="2"/>
    <path id="Path_3" data-name="Path 3" d="M720.921,1027.5V1040h-48v-12.5" transform="translate(-1154.704 -90.958)" fill="none" stroke="#fff" stroke-miterlimit="10" stroke-width="2"/>
    <path id="Path_4" data-name="Path 4" d="M679.837,1029.17V1040" transform="translate(-1154.704 -90.958)" fill="none" stroke="#fff" stroke-miterlimit="10" stroke-width="2"/>
    <path id="Path_5" data-name="Path 5" d="M713.837,1029.17V1040" transform="translate(-1154.704 -90.958)" fill="none" stroke="#fff" stroke-miterlimit="10" stroke-width="2"/>
    <path id="Path_6" data-name="Path 6" d="M670.337,1017.38s10.084-2.208,9.5,5.125c0,0,0,5.583-9.5,4Z" transform="translate(-1154.704 -90.958)" fill="none" stroke="#fff" stroke-miterlimit="10" stroke-width="2"/>
    <path id="Path_7" data-name="Path 7" d="M723.361,1017.68s-10.083-2.208-9.5,5.125c0,0,0,5.583,9.5,4Z" transform="translate(-1154.704 -90.958)" fill="none" stroke="#fff" stroke-miterlimit="10" stroke-width="2"/>
    <path id="Path_8" data-name="Path 8" d="M696.921,1039.04l.541-15.25s2.489-17.75,21.137-6.72" transform="translate(-1154.704 -90.958)" fill="none" stroke="#fff" stroke-miterlimit="10" stroke-width="2"/>
    <path id="Path_9" data-name="Path 9" d="M676.712,1017.07s8.656-7.2,26.578-2.492" transform="translate(-1154.704 -90.958)" fill="none" stroke="#fff" stroke-miterlimit="10" stroke-width="2"/>
  </g>
</svg>
