<svg xmlns="http://www.w3.org/2000/svg" width="43" height="43" viewBox="0 0 43 43">
  <g id="Icons_with_numbers" data-name="Icons with numbers" transform="translate(0 -1)">
    <g id="Group" transform="translate(0 1)">
      <path id="Oval_322_copy" data-name="Oval 322 copy" d="M134.706,221.667a18.472,18.472,0,0,0,1.373-5.733h-5.708a34.044,34.044,0,0,1-.705,5.733Zm1.373-8.6a18.473,18.473,0,0,0-1.373-5.733h-5.04a34.044,34.044,0,0,1,.705,5.733Zm-2.875-8.6h-4.291a22.723,22.723,0,0,0-3.371-6.78A18.706,18.706,0,0,1,133.2,204.467Zm-23.745-6.78a18.7,18.7,0,0,0-7.663,6.78h4.292A22.729,22.729,0,0,1,109.459,197.687Zm-9.164,9.646a18.522,18.522,0,0,0-1.374,5.733h5.707a34.188,34.188,0,0,1,.706-5.733Zm-1.374,8.6a18.521,18.521,0,0,0,1.374,5.733h5.039a34.188,34.188,0,0,1-.706-5.733Zm2.875,8.6a18.7,18.7,0,0,0,7.663,6.78,22.73,22.73,0,0,1-3.371-6.78ZM96,214.5v-1.433h.047a21.505,21.505,0,0,1,20.02-20.021V193h2.867v.046a21.507,21.507,0,0,1,20.021,20.021H139v2.867h-.046a21.507,21.507,0,0,1-20.021,20.021V236h-2.867v-.046a21.5,21.5,0,0,1-20.02-20.021H96Zm29.541,16.813a18.706,18.706,0,0,0,7.663-6.78h-4.291A22.724,22.724,0,0,1,125.541,231.313Zm.416-26.846c-1.539-4.463-4.074-7.628-7.023-8.411v8.411Zm-9.89-8.411c-2.95.783-5.484,3.947-7.023,8.411h7.023v-8.411Zm0,28.477v8.411c-2.95-.783-5.484-3.947-7.023-8.411Zm2.867,8.411v-8.411h7.023C124.417,229,121.883,232.161,118.933,232.944Zm7.832-11.278h-7.832v-5.733H127.5A32.3,32.3,0,0,1,126.765,221.667Zm-10.7-5.733v5.733h-7.832a32.3,32.3,0,0,1-.74-5.733Zm11.438-2.867h-8.571v-5.733h7.832A32.306,32.306,0,0,1,127.5,213.067Zm-11.438-5.733v5.733H107.5a32.306,32.306,0,0,1,.74-5.733Zm0,0" transform="translate(-96 -193)" fill="#514d57" fill-rule="evenodd"/>
    </g>
  </g>
</svg>
