<svg xmlns="http://www.w3.org/2000/svg" width="56" height="56" viewBox="0 0 56 56">
  <g id="Group_4" data-name="Group 4" transform="translate(-827 -942)">
    <circle id="Ellipse_1" data-name="Ellipse 1" cx="28" cy="28" r="28" transform="translate(827 942)" fill="#19171f"/>
    <path id="iconfinder_heart_226577" d="M31.8,10.48a8.469,8.469,0,0,0-11.978,0l-2,2-2-2A8.47,8.47,0,0,0,3.853,22.459l2,2L17.828,36.433,29.806,24.454l2-2A8.47,8.47,0,0,0,31.8,10.48ZM25.813,24.455,17.828,32.44,9.843,24.455,5.85,20.462a5.647,5.647,0,0,1,7.985-7.986l3.992,3.993,3.993-3.993a5.647,5.647,0,0,1,7.985,7.986Z" transform="translate(837.628 948.001)" fill="#7d7c81"/>
  </g>
</svg>
