<svg xmlns="http://www.w3.org/2000/svg" width="49.854" height="35.546" viewBox="0 0 49.854 35.546">
  <g id="Group_4" data-name="Group 4" transform="translate(-226 -1789.106)">
    <path id="Path_2" data-name="Path 2" d="M18.329,137.294V121.6a3.5,3.5,0,0,1,3.489-3.489H45.366a3.5,3.5,0,0,1,3.488,3.489v15.7a3.5,3.5,0,0,1-3.488,3.488H41.005v5.233l-7.587-5.233h-11.6A3.5,3.5,0,0,1,18.329,137.294Z" transform="translate(226 1672)" fill="none" stroke="#878688" stroke-width="2"/>
    <path id="Path_3" data-name="Path 3" d="M17.571,122.744H4.488A3.5,3.5,0,0,0,1,126.232v15.7a3.5,3.5,0,0,0,3.488,3.488H7.977v5.233l6.977-5.233h11.6a4.293,4.293,0,0,0,3.925-3.925" transform="translate(226 1672)" fill="none" stroke="#878688" stroke-width="2"/>
    <rect id="Rectangle_20" data-name="Rectangle 20" width="6.978" height="5.232" transform="translate(260.9 1797.957)" fill="none" stroke="#878688" stroke-width="2"/>
    <line id="Line_1" data-name="Line 1" x2="6.977" transform="translate(260.9 1800.573)" fill="none" stroke="#878688" stroke-width="2"/>
    <line id="Line_2" data-name="Line 2" x2="5.233" transform="translate(261.772 1806.678)" fill="none" stroke="#878688" stroke-width="2"/>
    <line id="Line_3" data-name="Line 3" x2="1.831" y2="2.617" transform="translate(263.281 1793)" fill="none" stroke="#878688" stroke-width="2"/>
    <path id="Path_4" data-name="Path 4" d="M37.516,123.34l.873,2.617v10.465" transform="translate(226 1672)" fill="none" stroke="#878688" stroke-width="2"/>
    <line id="Line_4" data-name="Line 4" x1="1.482" y2="2.617" transform="translate(266.395 1795.34)" fill="none" stroke="#878688" stroke-width="2"/>
    <text id="A" transform="translate(234.003 1810.173)" fill="#7b7b7d" font-size="10.31" font-family="MyriadPro-Bold, Myriad Pro" font-weight="700"><tspan x="0" y="0">A</tspan></text>
  </g>
</svg>
