<svg xmlns="http://www.w3.org/2000/svg" width="31.041" height="33.038" viewBox="0 0 31.041 33.038">
  <g id="Sign_Out" transform="translate(0.5 0.51)">
    <path id="Path_23" data-name="Path 23" d="M18.283,30H2.438V2H18.283A1.126,1.126,0,0,0,19.5,1a1.126,1.126,0,0,0-1.219-1H1.219A1.126,1.126,0,0,0,0,1V31a1.126,1.126,0,0,0,1.219,1H18.283a1.02,1.02,0,1,0,0-2Z" fill="#a2e1d3" stroke="#a2e1d3" stroke-width="1"/>
    <path id="Path_24" data-name="Path 24" d="M27.018,15.3l-5.59-7a.7.7,0,0,0-1.145,0,1.192,1.192,0,0,0,0,1.428L24.5,15.006H7.813A.927.927,0,0,0,7,16.016a.927.927,0,0,0,.81,1.01H24.5L20.283,22.3a1.192,1.192,0,0,0,0,1.428.7.7,0,0,0,1.145,0l5.589-7a1.2,1.2,0,0,0,0-1.428Z" transform="translate(2.747)" fill="#a2e1d3" stroke="#a2e1d3" stroke-width="1"/>
  </g>
</svg>
