<svg xmlns="http://www.w3.org/2000/svg" width="46.558" height="34.334" viewBox="0 0 46.558 34.334">
  <g id="Group_3" data-name="Group 3" transform="translate(-896.717 -1118.833)">
    <path id="Path_1" data-name="Path 1" d="M51.061,49.567a5.531,5.531,0,0,1-3.714,1.579q-17.275.107-34.552,0a5.711,5.711,0,0,1-5.469-5.469q-.072-11.144,0-22.289A5.709,5.709,0,0,1,12.8,17.919q17.275-.107,34.552,0a5.7,5.7,0,0,1,5.469,5.469q.065,11.145,0,22.289a5.459,5.459,0,0,1-1.022,3.038.736.736,0,0,1-.207.531A.79.79,0,0,1,51.061,49.567ZM35.71,35.14,34.82,36a7.29,7.29,0,0,1-9.891,0l-.194-.187L10.68,48.865a3.879,3.879,0,0,0,2.136.7q17.256.107,34.513,0a3.954,3.954,0,0,0,2.387-.887l-14-13.537ZM9.645,21.222a3.88,3.88,0,0,0-.736,2.186q-.071,11.125,0,22.25a3.9,3.9,0,0,0,.663,2.077L23.6,34.707,9.645,21.222Zm40.693-.2L36.849,34.04,50.74,47.467a3.85,3.85,0,0,0,.494-1.809q.065-11.125,0-22.251A3.938,3.938,0,0,0,50.338,21.017Zm-1.216-1.025a3.826,3.826,0,0,0-1.794-.491c-11.487-.071-22.974,0-34.461,0a3.9,3.9,0,0,0-2.075.63c5.093,4.927,10.161,9.88,15.286,14.774a5.677,5.677,0,0,0,7.646-.048l15.4-14.865Z" transform="translate(889.925 1101.467)" fill="#514d57" stroke="#514d57" stroke-width="1"/>
  </g>
</svg>
