<svg xmlns="http://www.w3.org/2000/svg" width="53.242" height="52.992" viewBox="0 0 53.242 52.992">
  <g id="Group_4" data-name="Group 4" transform="translate(388.91 -1143.622)">
    <circle id="Ellipse_8" data-name="Ellipse 8" cx="10" cy="10" r="10" transform="translate(-372.038 1144.622)" fill="none" stroke="#fff" stroke-miterlimit="10" stroke-width="2"/>
    <path id="Path_26" data-name="Path 26" d="M814.082,1273.85v5.141s-12.5-2.333-21.416,7.167c0,0-9.585-9-21.917-6.833v-6.834" transform="translate(-1154.704 -90.958)" fill="none" stroke="#fff" stroke-miterlimit="10" stroke-width="2"/>
    <path id="Path_27" data-name="Path 27" d="M770.749,1262.99v-6.333s13.832.333,21.666,7c0,0,10.834-7.333,21.667-6v4.834" transform="translate(-1154.704 -90.958)" fill="none" stroke="#fff" stroke-miterlimit="10" stroke-width="2"/>
    <path id="Path_28" data-name="Path 28" d="M774.7,1269.9a3.953,3.953,0,0,1-3.953,3.954h0a3.955,3.955,0,0,1-3.955-3.954v-3.45a3.955,3.955,0,0,1,3.955-3.954h0a3.953,3.953,0,0,1,3.953,3.954Z" transform="translate(-1154.704 -90.958)" fill="none" stroke="#fff" stroke-miterlimit="10" stroke-width="2"/>
    <path id="Path_29" data-name="Path 29" d="M818.036,1269.9a3.954,3.954,0,0,1-3.954,3.954h0a3.954,3.954,0,0,1-3.954-3.954v-3.45a3.954,3.954,0,0,1,3.954-3.954h0a3.954,3.954,0,0,1,3.954,3.954Z" transform="translate(-1154.704 -90.958)" fill="none" stroke="#fff" stroke-miterlimit="10" stroke-width="2"/>
    <line id="Line_18" data-name="Line 18" y2="21.24" transform="translate(-362.038 1172.892)" fill="none" stroke="#fff" stroke-miterlimit="10" stroke-width="2"/>
    <path id="Path_30" data-name="Path 30" d="M779.89,1257.94a28.379,28.379,0,0,1,24.359,0" transform="translate(-1154.704 -90.958)" fill="none" stroke="#fff" stroke-miterlimit="10" stroke-width="2"/>
  </g>
</svg>
