<svg xmlns="http://www.w3.org/2000/svg" width="53.5" height="37.137" viewBox="0 0 53.5 37.137">
  <g id="iconfinder_resolutions-05_897243" transform="translate(-6 -14.886)">
    <path id="Path_4" data-name="Path 4" d="M57,21" transform="translate(1.5 0.153)" fill="#00a388"/>
    <path id="Path_5" data-name="Path 5" d="M32.66,18.784a23.638,23.638,0,0,0-22.66,0V46.079s9.476-5.974,22.66,0c13.184-5.974,22.66,0,22.66,0V18.784A23.967,23.967,0,0,0,32.66,18.784Z" transform="translate(0.09 0)" fill="none"/>
    <path id="Path_6" data-name="Path 6" d="M32.66,18.784a23.638,23.638,0,0,0-22.66,0V46.079s9.476-5.974,22.66,0c13.184-5.974,22.66,0,22.66,0V18.784A23.967,23.967,0,0,0,32.66,18.784Z" transform="translate(0.09 0)" fill="none" stroke="#7a7a7b" stroke-linecap="round" stroke-linejoin="round" stroke-miterlimit="10" stroke-width="2"/>
    <path id="Path_7" data-name="Path 7" d="M7,21V50.355a32.124,32.124,0,0,1,14.214-3.09c8.549,0,8.446,1.133,8.446,1.133s-.515,2.472,2.884,2.472h.515c3.3,0,2.781-2.472,2.781-2.472s0-1.236,8.446-1.236A31.835,31.835,0,0,1,58.5,50.355V21" transform="translate(0 0.153)" fill="none" stroke="#7a7a7b" stroke-linecap="round" stroke-linejoin="round" stroke-miterlimit="10" stroke-width="2"/>
    <line id="Line_1" data-name="Line 1" x1="0.515" y2="24.72" transform="translate(32.75 19.505)" fill="none" stroke="#7a7a7b" stroke-linecap="round" stroke-linejoin="round" stroke-miterlimit="10" stroke-width="2"/>
  </g>
</svg>
