<svg xmlns="http://www.w3.org/2000/svg" width="31.416" height="37.283" viewBox="0 0 31.416 37.283">
  <path id="Path_10" data-name="Path 10" d="M71.892,331.436l-3.217-3.974a2.561,2.561,0,0,1-.5-1.514v-8.2a11.487,11.487,0,0,0-8.327-11.039v-3.218a3.163,3.163,0,0,0-3.154-3.154,3.205,3.205,0,0,0-3.154,3.154v3.154a11.469,11.469,0,0,0-8.327,11.1v8.2a2.566,2.566,0,0,1-.505,1.514l-3.217,3.974a2,2,0,0,0-.441,1.2v4.983H72.461v-4.983A3.563,3.563,0,0,0,71.892,331.436ZM55.363,303.49a1.262,1.262,0,0,1,2.524,0v2.839a8.893,8.893,0,0,0-2.586,0V303.49ZM70.44,335.663H42.81v-3.027l3.217-3.975a4.178,4.178,0,0,0,.946-2.712v-8.2a9.652,9.652,0,0,1,19.3,0v8.2a4.178,4.178,0,0,0,.946,2.712l3.217,3.975Z" transform="translate(-41.045 -300.335)" fill="#89888c"/>
</svg>
