<svg id="sccazcz" xmlns="http://www.w3.org/2000/svg" width="50.669" height="43.537" viewBox="0 0 50.669 43.537">
  <rect id="Rectangle_1" data-name="Rectangle 1" width="4.784" height="21.466" transform="translate(1 20.751)" fill="none" stroke="#757377" stroke-miterlimit="10" stroke-width="2"/>
  <path id="Path_2" data-name="Path 2" d="M47.39,30.424c-.169-.012-.332-.021-.5-.029l-.178-.01A49.383,49.383,0,0,1,33.2,32.92l-6.465,2.873a.427.427,0,0,1-.17.035.371.371,0,0,1-.1-.013L15.445,33.031a.421.421,0,0,1,.207-.817l10.874,2.748,6.039-2.684a7.6,7.6,0,0,0-3.732-4.226,14.562,14.562,0,0,0-5.416-.42,7.618,7.618,0,0,0-1.152.17c-.86.185-1.1.1-2.362-.857-.62-.469-1.2-1-1.755-1.5-.246-.225-.5-.455-.751-.677-2.13-.669-3.65-.162-5.566.479-.446.148-.908.3-1.4.449L6.954,26.726a.418.418,0,0,1-.326-.036v9.9l18.126,5.558.01,0a6.845,6.845,0,0,0,5.371-.344.227.227,0,0,1,.036-.015l18.965-7.082a3.76,3.76,0,0,0,.225-3.313A2.282,2.282,0,0,0,47.39,30.424Z" fill="none" stroke="#757377" stroke-miterlimit="10" stroke-width="2"/>
  <path id="Path_3" data-name="Path 3" d="M14.639,24V1h27V31.484" fill="none" stroke="#757377" stroke-miterlimit="10" stroke-width="2"/>
  <path id="Path_4" data-name="Path 4" d="M22.318,7.4h4" fill="none" stroke="#757377" stroke-miterlimit="10" stroke-width="2"/>
  <line id="Line_1" data-name="Line 1" x2="4.333" transform="translate(31.984 7.402)" fill="none" stroke="#757377" stroke-miterlimit="10" stroke-width="2"/>
  <path id="Path_5" data-name="Path 5" d="M23.9,8.236s-1.417,7.167,4.416,8c0,0,6.168.5,5.834-8" fill="none" stroke="#757377" stroke-miterlimit="10" stroke-width="2"/>
</svg>
