<svg xmlns="http://www.w3.org/2000/svg" width="41.242" height="45.533" viewBox="0 0 41.242 45.533">
  <g id="iconfinder_Tilda_Icons_1ed_cup_3586370" transform="translate(-9.4 -6.3)">
    <path id="Path_8" data-name="Path 8" d="M50.422,10.967a.833.833,0,0,0-.57-.259H41.968V7.078A.8.8,0,0,0,41.19,6.3H19.046a.8.8,0,0,0-.778.778v3.63h-8.09a.833.833,0,0,0-.57.259.78.78,0,0,0-.207.57,31.136,31.136,0,0,0,1.348,7.312c1.66,5.134,4.46,8.764,8.194,10.424a13.023,13.023,0,0,0,7.675,8.713v.156a7.529,7.529,0,0,1-7.468,7.727.8.8,0,0,0-.778.778v4.408a.8.8,0,0,0,.778.778H41.19a.8.8,0,0,0,.778-.778V46.647a.8.8,0,0,0-.778-.778,7.747,7.747,0,0,1-7.727-7.727v-.1a12.974,12.974,0,0,0,7.883-8.868c3.578-1.711,6.327-5.29,7.935-10.32a28.629,28.629,0,0,0,1.348-7.312A.617.617,0,0,0,50.422,10.967Zm-39.414,1.3h7.26V24.71a13.632,13.632,0,0,0,.207,2.541C12.563,23.725,11.267,14.961,11.008,12.264Zm29.4,35.109v2.852H19.928V47.373A8.99,8.99,0,0,0,28.122,38.4a12.072,12.072,0,0,0,1.971.207,10.282,10.282,0,0,0,1.815-.156A9.333,9.333,0,0,0,40.412,47.373ZM32.167,36.846a9.009,9.009,0,0,1-2.023.259,8.357,8.357,0,0,1-2.282-.311,2.794,2.794,0,0,0-.519-.156c-4.3-1.452-7.52-6.223-7.52-11.876V7.908H40.412V24.762c0,5.653-3.215,10.424-7.572,11.876m8.972-9.49a18.531,18.531,0,0,0,.207-2.437V12.264h7.053C48.814,14.961,47.569,23.466,41.813,27.148Z" transform="translate(0 0)" fill="#a1e0d2"/>
    <path id="Path_9" data-name="Path 9" d="M49.2,22.438l-4.253-.622-1.919-3.89a1.338,1.338,0,0,0-1.141-.726h0a1.243,1.243,0,0,0-1.141.726l-1.919,3.89-4.253.622a1.29,1.29,0,0,0-1.037.882,1.2,1.2,0,0,0,.311,1.3l3.112,3.008-.726,4.253a1.225,1.225,0,0,0,.519,1.245,1.274,1.274,0,0,0,.778.259,1.045,1.045,0,0,0,.57-.156l3.941-1.971,3.734,1.971a1.275,1.275,0,0,0,1.348-.1,1.327,1.327,0,0,0,.519-1.245l-.726-4.253,3.112-3.008a1.22,1.22,0,0,0,.311-1.3A1.514,1.514,0,0,0,49.2,22.438Zm-3.734,4.356a.648.648,0,0,0-.207.674l.726,4.1L42.4,29.7a.884.884,0,0,0-.726,0l-3.838,1.919.726-4.149a.767.767,0,0,0-.207-.674L35.4,23.89l4.1-.622a.8.8,0,0,0,.57-.415l1.815-3.734L43.7,22.853a.688.688,0,0,0,.57.415l4.1.622Z" transform="translate(-11.585 -5.247)" fill="#a1e0d2"/>
  </g>
</svg>
