<svg xmlns="http://www.w3.org/2000/svg" width="30.516" height="43" viewBox="0 0 30.516 43">
  <g id="customer_service-technical_support-male" data-name="customer service-technical support-male" transform="translate(0 -2)">
    <path id="Path_13" data-name="Path 13" d="M22,7Z" transform="translate(-6.742 -1.532)" fill="#42b9cc"/>
    <g id="Group_6" data-name="Group 6" transform="translate(0 2)">
      <path id="Path_21" data-name="Path 21" d="M18.726,46H11.79A11.8,11.8,0,0,0,0,57.79v.694H30.516V57.79A11.8,11.8,0,0,0,18.726,46ZM1.41,57.1a10.417,10.417,0,0,1,10.38-9.71h6.935a10.417,10.417,0,0,1,10.38,9.71Z" transform="translate(0 -15.484)" fill="#878688"/>
      <path id="Path_22" data-name="Path 22" d="M4.923,22.806h.87l.04.687a7.644,7.644,0,0,0,6.39,7.08,18.4,18.4,0,0,0,3.648.555,18.154,18.154,0,0,0,3.615-.548,7.655,7.655,0,0,0,5.332-3.613h.069a4.86,4.86,0,0,0,4.855-4.855V18.457a2.368,2.368,0,0,0-.739-1.7,2.858,2.858,0,0,0-.648-.458V14.484a12.484,12.484,0,1,0-24.968,0V16.3a2.9,2.9,0,0,0-.648.461A2.368,2.368,0,0,0,2,18.457v1.8a2.758,2.758,0,0,0,2.923,2.546Zm1.842-7.1a9.016,9.016,0,0,1,9-9.546h.208a9.016,9.016,0,0,1,9,9.546l-.01.164H24.69l-.535-1.606a.694.694,0,0,0-.971-.4,7.718,7.718,0,0,1-3.151.62,5.179,5.179,0,0,1-1.969-.472A12.239,12.239,0,0,0,13.1,13.1a6.889,6.889,0,0,0-5.934,2.774H6.774ZM19.242,29.215a.625.625,0,0,0-.069.014,17.347,17.347,0,0,1-3.3.513,17.882,17.882,0,0,1-3.371-.526,6.275,6.275,0,0,1-5.282-5.8l-.363-6.155h.694a.694.694,0,0,0,.621-.384c.012-.024,1.238-2.391,4.928-2.391a10.889,10.889,0,0,1,4.472.825,6.43,6.43,0,0,0,2.463.562,9.8,9.8,0,0,0,3.04-.476l.463,1.387a.694.694,0,0,0,.658.476h.694l-.362,6.155a6.168,6.168,0,0,1-.54,2.168h-5.34v-.694a.694.694,0,0,0-.694-.694H13.79a.694.694,0,0,0-.694.694v2.774a.694.694,0,0,0,.694.694h4.161a.694.694,0,0,0,.694-.694v-.694h4.486a6.242,6.242,0,0,1-3.889,2.248Zm-1.984-3.635v1.387H14.484V25.581Zm8.244-.062a7.524,7.524,0,0,0,.406-2.025l.04-.687h.87a3.215,3.215,0,0,0,1.5-.375A3.458,3.458,0,0,1,25.5,25.518Zm2.853-5.259c0,.629-.7,1.16-1.536,1.16H26.03l.244-4.111.5-.012a1.746,1.746,0,0,1,1.259.456.993.993,0,0,1,.32.7v1.8ZM4.774,14.484a11.1,11.1,0,0,1,22.194,0v1.443c-.076,0-.15-.018-.226-.016l-.388.009.008-.132A10.4,10.4,0,0,0,15.976,4.774h-.208A10.4,10.4,0,0,0,5.38,15.788l.008.132L5,15.911c-.077,0-.15.012-.226.015ZM3.387,18.457a.993.993,0,0,1,.322-.7A1.76,1.76,0,0,1,4.968,17.3l.5.012.244,4.111H4.923c-.832,0-1.536-.531-1.536-1.16Z" transform="translate(-0.613 -2)" fill="#878688"/>
    </g>
  </g>
</svg>
