<svg xmlns="http://www.w3.org/2000/svg" width="75.988" height="78.4" viewBox="0 0 75.988 78.4">
  <g id="iconfinder_remove_user_925905" transform="translate(0 -64.2)">
    <path id="Path_1" data-name="Path 1" d="M103.076,106.752a21.276,21.276,0,1,1,21.276-21.276A21.3,21.3,0,0,1,103.076,106.752Zm0-38.239a16.963,16.963,0,1,0,16.963,16.963A16.974,16.974,0,0,0,103.076,68.512Z" transform="translate(-65.082)" fill="#6f6f70"/>
    <path id="Path_2" data-name="Path 2" d="M73.842,291.46a2.146,2.146,0,0,1-2.146-2.146,33.692,33.692,0,0,0-67.384-.02,2.156,2.156,0,0,1-4.312,0,37.994,37.994,0,1,1,75.988,0A2.163,2.163,0,0,1,73.842,291.46Z" transform="translate(0 -148.861)" fill="#6f6f70"/>
  </g>
</svg>
