<svg xmlns="http://www.w3.org/2000/svg" width="48.46" height="53.227" viewBox="0 0 48.46 53.227">
  <g id="Group_3" data-name="Group 3" transform="translate(1.034 1.078)">
    <rect id="Rectangle_3" data-name="Rectangle 3" width="12.666" height="25.5" transform="translate(33.76 0.149)" fill="none" stroke="#a7a6a7" stroke-width="2"/>
    <path id="Path_2" data-name="Path 2" d="M935.92,1092.781s-16.333,4-15.5,14.667c0,0-1.5,5-6,.833,0,0-1.166-7,1.167-12.167l4.666-.833s-12.062.354-14.5-.833c0,0-4.334-2.667,0-5.833h6.667s-10.729,1.171-5-6.083h6.833s-8.249.479-6.166-4.083c0,0,.332-3.667,8.666-2.5,0,0-11.437,1.563-5.333-6.167,0,0,21.833-1,24.5,2.167l1.667.5v20.167Z" transform="translate(-903.827 -1069.632)" fill="none" stroke="#a7a6a7" stroke-width="2"/>
    <line id="Line_7" data-name="Line 7" x1="5.926" transform="translate(0 38.489)" fill="none" stroke="#a7a6a7" stroke-width="2"/>
    <line id="Line_8" data-name="Line 8" x1="5.13" y2="4.17" transform="translate(2.963 43.819)" fill="none" stroke="#a7a6a7" stroke-width="2"/>
    <line id="Line_9" data-name="Line 9" y2="6.25" transform="translate(13.26 45.899)" fill="none" stroke="#a7a6a7" stroke-width="2"/>
    <line id="Line_10" data-name="Line 10" x2="3.5" y2="4.17" transform="translate(19.26 43.819)" fill="none" stroke="#a7a6a7" stroke-width="2"/>
    <line id="Line_11" data-name="Line 11" x2="5.583" transform="translate(21.01 38.489)" fill="none" stroke="#a7a6a7" stroke-width="2"/>
    <line id="Line_12" data-name="Line 12" y1="10.33" transform="translate(37.426 5.319)" fill="none" stroke="#a7a6a7" stroke-width="2"/>
  </g>
</svg>
