<svg xmlns="http://www.w3.org/2000/svg" width="46.752" height="38.28" viewBox="0 0 46.752 38.28">
  <path id="cloud-upload_3_" d="M787.006,927.831l-5.507,5.507-1.271-1.271,7.625-7.626,7.626,7.626-1.271,1.271-5.508-5.507v18.64h-1.694v-18.64Zm-1.694,8.473H773.455a6.779,6.779,0,0,1-1.527-13.384h0a10.17,10.17,0,0,1,19.59-5.242,7.626,7.626,0,0,1,12.409,5.278h0a6.778,6.778,0,0,1-1.673,13.348H790.4V938h11.861a8.476,8.476,0,0,0,3.191-16.327h0a9.326,9.326,0,0,0-13.2-6.459,11.864,11.864,0,0,0-22.189,5.841c0,.234.008.466.021.7h0A8.473,8.473,0,0,0,773.452,938h11.863V936.3Z" transform="translate(-764.48 -908.691)" fill="#7a7a7b" stroke="#7a7a7b" stroke-miterlimit="10" stroke-width="1"/>
</svg>
