<svg xmlns="http://www.w3.org/2000/svg" width="46.55" height="48" viewBox="0 0 46.55 48">
  <g id="iconfinder_user_925901" transform="translate(-7.6 0.5)">
    <path id="Path_1" data-name="Path 1" d="M131.485,25.162a12.581,12.581,0,1,1,12.585-12.576A12.6,12.6,0,0,1,131.485,25.162Zm0-23.289a10.708,10.708,0,1,0,10.7,10.713A10.715,10.715,0,0,0,131.485,1.873Z" transform="translate(-100.629)" fill="#a1e0d2" stroke="#a1e0d2" stroke-width="1"/>
    <path id="Path_2" data-name="Path 2" d="M52.695,277.411a.94.94,0,0,1-.936-.936,20.893,20.893,0,0,0-41.786,0,.936.936,0,1,1-1.873,0,22.775,22.775,0,0,1,45.55,0A.969.969,0,0,1,52.695,277.411Z" transform="translate(0 -230.411)" fill="#a1e0d2" stroke="#a1e0d2" stroke-width="1"/>
  </g>
</svg>
